<svg width="48" height="48" viewBox="0 0 48 48" fill="none" xmlns="http://www.w3.org/2000/svg">
<path d="M30.8571 10.2857C32.8121 10.2857 34.5123 9.19489 35.3823 7.5887C35.561 7.25884 35.9489 7.07531 36.2905 7.23049C39.4054 8.64581 41.5714 11.7842 41.5714 15.4286C41.5714 19.0729 39.4054 22.2113 36.2904 23.6267C35.9489 23.7818 35.561 23.5983 35.3823 23.2685C34.5123 21.6623 32.8121 20.5714 30.8571 20.5714C28.0168 20.5714 25.7143 22.874 25.7143 25.7143C25.7143 28.5546 28.0168 30.8571 30.8571 30.8571C33.2803 30.8571 35.3121 29.1813 35.8566 26.9254C35.9185 26.669 36.1013 26.4549 36.3505 26.3688C40.8856 24.8026 44.1429 20.496 44.1429 15.4286C44.1429 10.3612 40.8856 6.05459 36.3506 4.48832C36.1013 4.40222 35.9185 4.18814 35.8566 3.93177C35.3121 1.67586 33.2803 0 30.8571 0C28.6474 0 26.7631 1.39369 26.0354 3.35004C25.9263 3.64329 25.6576 3.85714 25.3447 3.85714H19.2267C18.9138 3.85714 18.6451 3.64329 18.536 3.35004C17.8083 1.39369 15.9241 0 13.7143 0C10.874 0 8.57143 2.30254 8.57143 5.14286C8.57143 7.98318 10.874 10.2857 13.7143 10.2857C15.9241 10.2857 17.8083 8.89202 18.536 6.93568C18.6451 6.64243 18.9138 6.42857 19.2267 6.42857H25.3447C25.6576 6.42857 25.9263 6.64243 26.0354 6.93568C26.7631 8.89202 28.6474 10.2857 30.8571 10.2857Z" fill="#1D4ED8"/>
<path d="M15 37.3447C15 37.6576 15.2139 37.9263 15.5071 38.0354C17.4634 38.7631 18.8571 40.6474 18.8571 42.8571C18.8571 45.6975 16.5546 48 13.7143 48C10.874 48 8.57143 45.6975 8.57143 42.8571C8.57143 40.6474 9.96512 38.7631 11.9215 38.0354C12.2147 37.9263 12.4286 37.6576 12.4286 37.3447L12.4286 31.2267C12.4286 30.9138 12.2147 30.6451 11.9215 30.536C9.96512 29.8083 8.57143 27.9241 8.57143 25.7143C8.57143 22.874 10.874 20.5714 13.7143 20.5714C16.5546 20.5714 18.8571 22.874 18.8571 25.7143C18.8571 27.9241 17.4634 29.8083 15.5071 30.536C15.2139 30.6451 15 30.9138 15 31.2267L15 37.3447Z" fill="#1D4ED8"/>
</svg>
