<svg width="32" height="32" viewBox="0 0 32 32" fill="none" xmlns="http://www.w3.org/2000/svg">
<g clip-path="url(#clip0_368_2702)">
<path d="M16 0C20.4183 1.84847e-07 24.4179 1.7912 27.3134 4.68663L23.5425 8.45747C21.6122 6.52718 18.9455 5.33333 16 5.33333C10.109 5.33333 5.33333 10.109 5.33333 16C5.33333 21.891 10.109 26.6667 16 26.6667C18.9455 26.6667 21.6122 25.4728 23.5425 23.5425L27.3134 27.3134C24.4179 30.2088 20.4183 32 16 32C7.16344 32 3.86258e-07 24.8366 0 16C-3.86258e-07 7.16344 7.16344 3.86258e-07 16 0Z" fill="white"/>
<path d="M32 18.6667H16V13.3333H32V18.6667Z" fill="white"/>
</g>
<defs>
<clipPath id="clip0_368_2702">
<rect width="32" height="32" fill="white"/>
</clipPath>
</defs>
</svg>
