<svg width="32" height="32" viewBox="0 0 32 32" fill="none" xmlns="http://www.w3.org/2000/svg">
<rect width="32" height="32" fill="#FFC845"/>
<path fill-rule="evenodd" clip-rule="evenodd" d="M16 28C19.3137 28 22.3137 26.6569 24.4853 24.4853L21.6569 21.6569C20.2092 23.1046 18.2091 24 16 24C11.5817 24 8 20.4183 8 16C8 11.5817 11.5817 8.00002 16 8.00002C18.2091 8.00002 20.2091 8.89545 21.6568 10.3432L24.4853 7.51472C22.3137 5.34315 19.3137 4 16 4C9.37258 4 4 9.37258 4 16C4 22.6274 9.37258 28 16 28ZM28 14H16V18H28V14Z" fill="black"/>
</svg>
