<svg width="32" height="32" viewBox="0 0 32 32" fill="none" xmlns="http://www.w3.org/2000/svg">
<rect width="32" height="32" fill="#FFCD00"/>
<path fill-rule="evenodd" clip-rule="evenodd" d="M12.2043 23.1016C13.3721 23.726 14.6758 24.0528 16 24.0531C17.0579 24.055 18.1057 23.8477 19.0831 23.443C20.0606 23.0384 20.9483 22.4444 21.6953 21.6953L24.4844 24.4844C23.3721 25.6012 22.0498 26.4869 20.5936 27.0902C19.1374 27.6936 17.5762 28.0028 16 28C9.37188 28 4 22.6281 4 16C4 9.37188 9.37188 4.00001 16 4.00001C17.5761 3.99825 19.137 4.30793 20.593 4.91125C22.049 5.51458 23.3715 6.39965 24.4844 7.51563L21.6953 10.3047C20.7588 9.36848 19.6059 8.67765 18.3386 8.29339C17.0714 7.90913 15.729 7.8433 14.4302 8.10172C13.1315 8.36014 11.9165 8.93485 10.8928 9.77493C9.86923 10.615 9.06856 11.6946 8.56177 12.918C8.05497 14.1414 7.85769 15.4709 7.98738 16.7887C8.11707 18.1066 8.56973 19.3721 9.30529 20.4732C10.0408 21.5744 11.0366 22.4771 12.2043 23.1016ZM16 14.0266H28V17.9735H16V14.0266Z" fill="#1E293B"/>
</svg>
