<svg width="356" height="24" viewBox="0 0 356 24" fill="none" xmlns="http://www.w3.org/2000/svg">
<path fill-rule="evenodd" clip-rule="evenodd" d="M3.94619 12C3.94619 16.4479 7.55308 20.0538 12.001 20.0538C14.225 20.0538 16.2382 19.1531 17.6962 17.6951L20.4867 20.4856C18.3151 22.6572 15.3149 24 12.001 24C5.37332 24 0 18.6277 0 12C0 5.37229 5.37332 0 12.001 0C15.3149 0 18.3151 1.34384 20.4867 3.51435L17.6962 6.30486C16.2382 4.84791 14.225 3.94619 12.001 3.94619C7.55308 3.94619 3.94619 7.55205 3.94619 12ZM85.682 3.65366C84.5458 3.65366 83.6143 3.885 82.8874 4.34872C82.1584 4.81449 81.7944 5.51366 81.7944 6.45137C81.7944 7.38805 82.1584 8.10367 82.8874 8.59925C83.6143 9.0969 85.1628 9.63258 87.5338 10.2032C89.9027 10.779 91.6907 11.5841 92.8937 12.6184C94.0946 13.6569 94.6951 15.1838 94.6951 17.2001C94.6951 19.2184 93.9353 20.8553 92.4115 22.1127C90.8908 23.3702 88.8961 23.9995 86.4254 23.9995C82.8092 23.9995 79.6002 22.7533 76.8015 20.26L79.2486 17.3152C81.5846 19.3449 84.0102 20.3607 86.5241 20.3607C87.7815 20.3607 88.7799 20.0913 89.5182 19.5495C90.2585 19.0086 90.6265 18.293 90.6265 17.3985C90.6265 16.505 90.2801 15.811 89.585 15.3154C88.891 14.8198 87.6931 14.3674 85.9966 13.9582C84.298 13.552 83.0066 13.1747 82.1255 12.8333C81.2423 12.492 80.4598 12.0468 79.7761 11.4957C78.4086 10.4592 77.7269 8.8707 77.7269 6.73103C77.7269 4.59343 78.5021 2.94318 80.0588 1.78544C81.6114 0.627698 83.5362 0.0488281 85.83 0.0488281C87.3076 0.0488281 88.7748 0.291482 90.2286 0.775759C91.6846 1.26312 92.942 1.94687 94 2.827L91.9169 5.77276C91.2322 5.15585 90.3068 4.64689 89.1388 4.25104C87.9697 3.85313 86.8181 3.65366 85.682 3.65366ZM101.699 23.7332V0.612305H105.602V10.6341H117.08V0.612305H120.984V23.7332H117.08V14.2739H105.602V23.7332H101.699ZM139.077 23.965C142.517 23.965 145.406 22.8237 147.742 20.5411C150.081 18.2606 151.251 15.4156 151.251 12.0071C151.251 8.59969 150.081 5.75674 147.742 3.47416C145.406 1.19158 142.517 0.050293 139.077 0.050293C135.636 0.050293 132.748 1.19158 130.411 3.47416C128.072 5.75674 126.904 8.59969 126.904 12.0071C126.904 15.4156 128.072 18.2606 130.411 20.5411C132.748 22.8237 135.636 23.965 139.077 23.965ZM139.077 3.62222C141.371 3.62222 143.307 4.43758 144.884 6.06931C146.458 7.70311 147.247 9.68134 147.247 12.0071C147.247 14.336 146.458 16.3142 144.884 17.9459C143.307 19.5777 141.371 20.393 139.077 20.393C136.783 20.393 134.848 19.5777 133.271 17.9459C131.695 16.3142 130.907 14.336 130.907 12.0071C130.907 9.68134 131.695 7.70311 133.271 6.06931C134.848 4.43758 136.783 3.62222 139.077 3.62222ZM161.075 23.7332H157.172V0.612305H163.258L170.238 15.1324L177.217 0.612305H183.271V23.7332H179.368V5.67305L171.296 21.7169H169.114L161.075 5.67305V23.7332ZM239.792 0.612305V23.7332H243.695V14.2739H255.174V23.7332H259.077V0.612305H255.174V10.6341H243.695V0.612305H239.792ZM324.477 0.608521H320.574V23.7294H324.477V0.608521ZM45.499 0.612915H28.8588V4.28456H45.499V0.612915ZM28.8579 10.3999H43.8428V13.8721H28.8579V10.3999ZM28.8586 20.0602H45.4989V23.7318H28.8586V20.0602ZM66.1703 15.3319C69.5006 14.3386 71.1663 11.9378 71.1663 8.12014C71.1663 5.49826 70.4055 3.58994 68.8837 2.39724C67.363 1.2066 64.8357 0.612305 61.3091 0.612305H52.7083V23.7332H56.6113V4.15236H61.5723C63.6667 4.15236 65.1236 4.43203 65.939 4.99445C66.7543 5.55687 67.1636 6.59328 67.1636 8.10369C67.1636 9.6141 66.7657 10.7132 65.9709 11.396C65.1802 12.0807 63.678 12.4221 61.4725 12.4221H59.2229L67.2633 23.7332H72.2243L66.1703 15.3319ZM313.019 8.12014C313.019 11.9378 311.353 14.3386 308.023 15.3319L314.077 23.7332H309.116L303.593 15.9621L301.076 12.4221H303.325C305.531 12.4221 307.032 12.0807 307.824 11.396C308.618 10.7132 309.016 9.6141 309.016 8.10369C309.016 6.59328 308.607 5.55687 307.792 4.99445C306.975 4.43203 305.519 4.15236 303.425 4.15236H298.464V23.7332H294.561V0.612305H303.162C306.688 0.612305 309.216 1.2066 310.737 2.39724C312.257 3.58994 313.019 5.49826 313.019 8.12014ZM278.896 0.612427H274.728L264.539 23.7333H268.706L276.812 5.3421L284.915 23.7333H289.085L278.896 0.612427ZM24.0015 10.0267H12.0005V13.9729H24.0015V10.0267ZM216.721 12C216.721 16.4479 220.327 20.0538 224.775 20.0538C226.999 20.0538 229.013 19.1531 230.471 17.6951L233.261 20.4856C231.09 22.6572 228.089 24 224.775 24C218.148 24 212.774 18.6277 212.774 12C212.774 5.37229 218.148 0 224.775 0C228.089 0 231.09 1.34384 233.261 3.51435L230.471 6.30486C229.013 4.84791 226.999 3.94619 224.775 3.94619C220.327 3.94619 216.721 7.55205 216.721 12ZM343.575 20.0538C339.127 20.0538 335.52 16.4479 335.52 12C335.52 7.55205 339.127 3.94619 343.575 3.94619C345.799 3.94619 347.812 4.84791 349.27 6.30486L352.061 3.51435C349.889 1.34384 346.889 0 343.575 0C336.947 0 331.575 5.37229 331.575 12C331.575 18.6277 336.947 24 343.575 24C346.889 24 349.889 22.6572 352.061 20.4856L349.27 17.6951C347.812 19.1531 345.799 20.0538 343.575 20.0538ZM343.575 10.0267H355.576V13.9729H343.575V10.0267Z" fill="white"/>
</svg>
