<svg width="800" height="400" viewBox="0 0 800 400" fill="none" xmlns="http://www.w3.org/2000/svg">
<g clip-path="url(#clip0_18_1907)">
<rect width="800" height="400" fill="white"/>
<rect x="400" y="-100" width="400" height="600" fill="#FFCD00"/>
<path d="M600 90C630.376 90 657.876 102.312 677.782 122.218L652.326 147.674C638.935 134.282 620.435 126 600 126C559.131 126 526 159.131 526 200C526 240.869 559.131 274 600 274C620.435 274 638.935 265.718 652.326 252.326L677.782 277.782C657.876 297.688 630.376 310 600 310C539.249 310 490 260.751 490 200C490 139.249 539.249 90 600 90ZM710 218H600V182H710V218Z" fill="#1E293B"/>
<path opacity="0.25" d="M200 90C230.376 90 257.876 102.312 277.782 122.218L252.326 147.674C238.935 134.282 220.435 126 200 126C159.131 126 126 159.131 126 200C126 240.869 159.131 274 200 274C220.435 274 238.935 265.718 252.326 252.326L277.782 277.782C257.876 297.688 230.376 310 200 310C139.249 310 90 260.751 90 200C90 139.249 139.249 90 200 90ZM310 218H200V182H310V218Z" fill="#FFCD00"/>
<rect x="90" y="90" width="220" height="220" stroke="#FFCD00" stroke-dasharray="2 2"/>
<rect x="126" y="90" width="148" height="220" stroke="#FFCD00" stroke-dasharray="2 2"/>
<rect x="310" y="126" width="148" height="220" transform="rotate(90 310 126)" stroke="#FFCD00" stroke-dasharray="2 2"/>
<path d="M310 90L90 310" stroke="#FFCD00" stroke-dasharray="2 2"/>
<path d="M90 90L310 310" stroke="#FFCD00" stroke-dasharray="2 2"/>
<circle cx="200" cy="200" r="110" stroke="#FFCD00" stroke-dasharray="2 2"/>
<circle cx="200" cy="200" r="74" stroke="#FFCD00" stroke-dasharray="2 2"/>
<path d="M200 90L200 310" stroke="#FFCD00" stroke-dasharray="2 2"/>
<path d="M310.005 199.995L90.0049 199.995" stroke="#FFCD00" stroke-dasharray="2 2"/>
<path d="M310.005 182L90.0049 182" stroke="#FFCD00" stroke-dasharray="2 2"/>
<path d="M310.005 218L90.0049 218" stroke="#FFCD00" stroke-dasharray="2 2"/>
</g>
<defs>
<clipPath id="clip0_18_1907">
<rect width="800" height="400" fill="white"/>
</clipPath>
</defs>
</svg>
