<svg width="175" height="18" viewBox="0 0 175 18" fill="none" xmlns="http://www.w3.org/2000/svg">
<path d="M155.767 17.28V4.36796H159.439V5.99996C160.255 4.60796 161.479 3.95996 162.967 3.95996C164.503 3.95996 165.799 4.65596 166.447 6.09596C167.335 4.63196 168.703 3.95996 170.311 3.95996C172.711 3.95996 174.487 5.47196 174.487 8.66396V17.28H170.815V9.40796C170.815 7.77596 170.263 6.93596 169.087 6.93596C167.815 6.93596 166.951 8.20796 166.951 9.86396V17.28H163.303V9.40796C163.303 7.77596 162.727 6.93596 161.551 6.93596C160.279 6.93596 159.439 8.20796 159.439 9.86396V17.28H155.767Z" fill="white"/>
<path d="M147.465 17.664C143.553 17.664 141.129 15.072 141.129 10.824C141.129 6.43196 143.625 3.95996 147.465 3.95996C151.377 3.95996 153.825 6.59996 153.825 10.824C153.825 15.192 151.305 17.664 147.465 17.664ZM147.465 14.688C149.169 14.688 150.057 13.344 150.057 10.824C150.057 8.32796 149.145 6.93596 147.465 6.93596C145.785 6.93596 144.897 8.30396 144.897 10.824C144.897 13.32 145.809 14.688 147.465 14.688Z" fill="white"/>
<path d="M127.454 17.28V0H131.126V6.072C131.966 4.632 133.286 3.96 134.87 3.96C137.342 3.96 139.19 5.472 139.19 8.664V17.28H135.518V9.408C135.518 7.776 134.87 6.936 133.526 6.936C132.062 6.936 131.126 8.208 131.126 9.864V17.28H127.454Z" fill="white"/>
<path d="M117.615 7.94396C117.615 10.488 125.607 8.25596 125.607 13.368C125.607 15.912 123.255 17.664 119.895 17.664C116.631 17.664 114.279 16.224 113.799 13.032H117.471C117.639 14.232 118.623 14.88 119.991 14.88C121.287 14.88 121.935 14.376 121.935 13.584C121.935 11.088 114.111 13.32 114.111 8.13596C114.111 5.97596 115.863 3.95996 119.319 3.95996C122.415 3.95996 124.767 5.37596 125.127 8.63996H121.479C121.263 7.31996 120.495 6.76796 119.199 6.76796C118.239 6.76796 117.615 7.24796 117.615 7.94396Z" fill="white"/>
<path d="M104.626 17.28V4.36796H108.298V6.16796C109.114 4.63196 110.362 3.95996 111.682 3.95996C112.21 3.95996 112.69 4.10396 112.954 4.36796V7.46396C112.522 7.36796 112.066 7.31996 111.49 7.31996C109.282 7.31996 108.298 8.56796 108.298 10.608V17.28H104.626Z" fill="white"/>
<path d="M102.708 13.032C102.036 16.008 99.6364 17.664 96.4684 17.664C92.4604 17.664 89.9884 15.072 89.9884 10.824C89.9884 6.43196 92.4844 3.95996 96.3244 3.95996C100.188 3.95996 102.612 6.52796 102.612 10.752V11.568H93.7324C93.9244 13.632 94.8844 14.736 96.4684 14.736C97.6684 14.736 98.4844 14.208 98.8684 13.032H102.708ZM96.3244 6.88796C94.9564 6.88796 94.0924 7.77596 93.8044 9.45596H98.8204C98.5324 7.77596 97.6684 6.88796 96.3244 6.88796Z" fill="white"/>
<path d="M88.1213 17.2797H85.5053L85.1693 15.4557C84.1853 16.9437 82.5533 17.6637 80.6093 17.6637C76.0253 17.6637 73.0253 14.4237 73.0253 9.14368C73.0253 3.86368 76.0253 0.575684 80.9453 0.575684C84.4493 0.575684 87.4253 2.47168 88.1213 6.19168H84.0893C83.6333 4.58368 82.4813 3.71968 80.8493 3.71968C78.3773 3.71968 76.9613 5.75968 76.9613 9.14368C76.9613 12.5277 78.4493 14.5197 80.9693 14.5197C82.7213 14.5197 84.1853 13.5597 84.4493 11.3517H81.3293V8.44768H88.1213V17.2797Z" fill="white"/>
<path d="M60.8563 13.0797V7.15168H59.2723V4.36768H60.8563V1.36768H64.5283V4.36768H67.1683V7.15168H64.5283V12.6237C64.5283 13.8717 64.8643 14.5677 66.4483 14.5677H67.1443V17.3277C66.7363 17.5197 65.9203 17.6637 64.9363 17.6637C62.1763 17.6637 60.8563 16.0797 60.8563 13.0797Z" fill="white"/>
<path d="M54.2104 11.7837V4.36768H57.8824V17.2797H54.2104V15.5517C53.3704 16.9917 52.0984 17.6637 50.5384 17.6637C48.0904 17.6637 46.2904 16.1757 46.2904 12.9597V4.36768H49.9624V12.2157C49.9624 13.8717 50.5864 14.6877 51.8824 14.6877C53.2984 14.6877 54.2104 13.4397 54.2104 11.7837Z" fill="white"/>
<path d="M37.9884 17.664C34.0764 17.664 31.6524 15.072 31.6524 10.824C31.6524 6.43196 34.1484 3.95996 37.9884 3.95996C41.9004 3.95996 44.3484 6.59996 44.3484 10.824C44.3484 15.192 41.8284 17.664 37.9884 17.664ZM37.9884 14.688C39.6924 14.688 40.5804 13.344 40.5804 10.824C40.5804 8.32796 39.6684 6.93596 37.9884 6.93596C36.3084 6.93596 35.4204 8.30396 35.4204 10.824C35.4204 13.32 36.3324 14.688 37.9884 14.688Z" fill="white"/>
<path d="M21.6264 17.28H17.9544V0H21.6264V5.688C22.4184 4.56 23.5224 3.96 24.8664 3.96C28.2024 3.96 30.2664 6.576 30.2664 10.8C30.2664 15.192 28.1544 17.664 24.8664 17.664C23.4984 17.664 22.3944 17.088 21.6264 16.008V17.28ZM24.0744 6.936C22.4664 6.936 21.6264 8.304 21.6264 10.8C21.6264 13.296 22.4904 14.688 24.0744 14.688C25.6584 14.688 26.5224 13.32 26.5224 10.8C26.5224 8.304 25.6584 6.936 24.0744 6.936Z" fill="white"/>
<path d="M12.432 17.28L11.352 14.232H4.944L3.864 17.28H0L5.952 0.959961H10.56L16.536 17.28H12.432ZM7.656 6.57596L6 11.28H10.296L8.64 6.57596L8.16 4.72796L7.656 6.57596Z" fill="white"/>
</svg>
