<svg width="153" height="18" viewBox="0 0 153 18" fill="none" xmlns="http://www.w3.org/2000/svg">
<path d="M146.35 12.504V6.57599H144.766V3.79199H146.35V0.791992H150.022V3.79199H152.662V6.57599H150.022V12.048C150.022 13.296 150.358 13.992 151.942 13.992H152.638V16.752C152.23 16.944 151.414 17.088 150.43 17.088C147.67 17.088 146.35 15.504 146.35 12.504Z" fill="white"/>
<path d="M143.937 8.44828H140.265C140.025 6.93628 139.161 6.36028 138.105 6.36028C136.473 6.36028 135.633 7.72828 135.633 10.2483C135.633 12.7443 136.521 14.1123 138.201 14.1123C139.305 14.1123 140.073 13.4883 140.337 12.2883H144.009C143.457 15.5283 141.129 17.0883 138.129 17.0883C134.265 17.0883 131.865 14.4723 131.865 10.2483C131.865 5.85628 134.313 3.38428 138.105 3.38428C141.105 3.38428 143.481 5.06428 143.937 8.44828Z" fill="white"/>
<path d="M130.499 12.4563C129.827 15.4323 127.427 17.0883 124.259 17.0883C120.251 17.0883 117.779 14.4963 117.779 10.2483C117.779 5.85628 120.275 3.38428 124.115 3.38428C127.979 3.38428 130.403 5.95228 130.403 10.1763V10.9923H121.523C121.715 13.0563 122.675 14.1603 124.259 14.1603C125.459 14.1603 126.275 13.6323 126.659 12.4563H130.499ZM124.115 6.31228C122.747 6.31228 121.883 7.20028 121.595 8.88028H126.611C126.323 7.20028 125.459 6.31228 124.115 6.31228Z" fill="white"/>
<path d="M104.104 16.7043V3.79228H107.776V5.49628C108.616 4.05628 109.936 3.38428 111.52 3.38428C113.992 3.38428 115.84 4.89628 115.84 8.08828V16.7043H112.168V8.83228C112.168 7.20028 111.52 6.36028 110.176 6.36028C108.712 6.36028 107.776 7.63228 107.776 9.28828V16.7043H104.104Z" fill="white"/>
<path d="M89.8777 16.7043V3.79228H93.5497V5.49628C94.3897 4.05628 95.7097 3.38428 97.2937 3.38428C99.7657 3.38428 101.614 4.89628 101.614 8.08828V16.7043H97.9417V8.83228C97.9417 7.20028 97.2937 6.36028 95.9497 6.36028C94.4857 6.36028 93.5497 7.63228 93.5497 9.28828V16.7043H89.8777Z" fill="white"/>
<path d="M81.5758 17.0883C77.6638 17.0883 75.2398 14.4963 75.2398 10.2483C75.2398 5.85628 77.7358 3.38428 81.5758 3.38428C85.4878 3.38428 87.9358 6.02428 87.9358 10.2483C87.9358 14.6163 85.4158 17.0883 81.5758 17.0883ZM81.5758 14.1123C83.2798 14.1123 84.1678 12.7683 84.1678 10.2483C84.1678 7.75228 83.2558 6.36028 81.5758 6.36028C79.8958 6.36028 79.0078 7.72828 79.0078 10.2483C79.0078 12.7443 79.9198 14.1123 81.5758 14.1123Z" fill="white"/>
<path d="M73.8414 5.616H69.8095C69.3535 4.008 68.2015 3.144 66.5695 3.144C64.0975 3.144 62.6815 5.208 62.6815 8.568C62.6815 11.952 64.0735 13.944 66.5695 13.944C68.1055 13.944 69.3055 13.128 69.7615 11.592H73.8414C73.0014 15.192 70.0975 17.088 66.6175 17.088C61.7455 17.088 58.7455 13.848 58.7455 8.568C58.7455 3.288 61.7455 0 66.6655 0C70.1695 0 73.1455 1.896 73.8414 5.616Z" fill="white"/>
<path d="M44.6948 7.36828C44.6948 9.91228 52.6868 7.68028 52.6868 12.7923C52.6868 15.3363 50.3348 17.0883 46.9748 17.0883C43.7108 17.0883 41.3588 15.6483 40.8788 12.4563H44.5508C44.7188 13.6563 45.7028 14.3043 47.0708 14.3043C48.3668 14.3043 49.0148 13.8003 49.0148 13.0083C49.0148 10.5123 41.1908 12.7443 41.1908 7.56028C41.1908 5.40028 42.9428 3.38428 46.3988 3.38428C49.4948 3.38428 51.8468 4.80028 52.2068 8.06428H48.5588C48.3428 6.74428 47.5748 6.19228 46.2788 6.19228C45.3188 6.19228 44.6948 6.67228 44.6948 7.36828Z" fill="white"/>
<path d="M35.6177 3.84028V0.384277H39.4577V2.61628C39.4577 4.58428 39.0257 5.76028 38.0897 7.24828H36.1937C36.7457 6.07228 37.1057 5.04028 37.1057 3.84028H35.6177Z" fill="white"/>
<path d="M27.4281 12.504V6.57599H25.8441V3.79199H27.4281V0.791992H31.1001V3.79199H33.7401V6.57599H31.1001V12.048C31.1001 13.296 31.4361 13.992 33.0201 13.992H33.7161V16.752C33.3081 16.944 32.4921 17.088 31.5081 17.088C28.7481 17.088 27.4281 15.504 27.4281 12.504Z" fill="white"/>
<path d="M25.0302 12.4563C24.3582 15.4323 21.9582 17.0883 18.7902 17.0883C14.7822 17.0883 12.3102 14.4963 12.3102 10.2483C12.3102 5.85628 14.8061 3.38428 18.6461 3.38428C22.5101 3.38428 24.9341 5.95228 24.9341 10.1763V10.9923H16.0542C16.2462 13.0563 17.2062 14.1603 18.7902 14.1603C19.9902 14.1603 20.8062 13.6323 21.1902 12.4563H25.0302ZM18.6461 6.31228C17.2781 6.31228 16.4142 7.20028 16.1262 8.88028H21.1421C20.8542 7.20028 19.9901 6.31228 18.6461 6.31228Z" fill="white"/>
<path d="M0 16.7043V0.384277H3.84V13.5843H11.016V16.7043H0Z" fill="white"/>
</svg>
