<svg width="36" height="36" viewBox="0 0 36 36" fill="none" xmlns="http://www.w3.org/2000/svg">
<path d="M18 0C22.9706 2.07953e-07 27.4702 2.0151 30.7275 5.27246L26.4854 9.51465C24.3138 7.34308 21.3137 6 18 6C11.3726 6 6 11.3726 6 18C6 24.6274 11.3726 30 18 30C21.3137 30 24.3138 28.6569 26.4854 26.4854L30.7275 30.7275C27.4702 33.9849 22.9706 36 18 36C8.05887 36 4.3454e-07 27.9411 0 18C-4.3454e-07 8.05887 8.05887 4.3454e-07 18 0Z" fill="white"/>
<path d="M36 21H18V15H36V21Z" fill="white"/>
</svg>
