<svg width="480" height="36" viewBox="0 0 480 36" fill="none" xmlns="http://www.w3.org/2000/svg">
<path d="M40.5259 35.4033H66.58V29.9337H46.6428V20.6354H64.0965V15.116H46.6428V6.0663H66.3311V0.596703H40.5259V35.4033Z" fill="white"/>
<path fill-rule="evenodd" clip-rule="evenodd" d="M79.9558 6.16573V35.4033H73.8389V0.596703H89.3552C93.7308 0.596703 97.1604 1.88952 99.3992 4.07736C101.238 5.96686 102.282 8.55254 102.282 11.5857V11.6851C102.282 17.4033 98.8527 20.8342 94.0285 22.2265L103.424 35.4033H96.1655L83.7928 17.8508H88.9067C93.2823 17.8508 96.0675 15.5635 96.0675 12.0331V11.9337C96.0675 8.20445 93.3803 6.16573 88.8579 6.16573H79.9558Z" fill="white"/>
<path d="M121.975 35.9006C129.283 35.9006 134.404 32.0222 134.404 25.5084V25.4089C134.404 19.6409 130.624 17.0056 123.268 15.2155C116.555 13.6244 114.961 12.431 114.961 9.74593V9.6465C114.961 7.35922 117.049 5.51942 120.629 5.51942C123.814 5.51942 126.946 6.76261 130.077 9.09962L133.36 4.47529C129.829 1.64104 125.8 0.0995865 120.731 0.0995865C113.819 0.0995865 108.848 4.22667 108.848 10.1935V10.2929C108.848 16.7073 113.024 18.8951 120.433 20.6851C126.897 22.1768 128.287 23.5195 128.287 26.0057V26.1051C128.287 28.6907 125.902 30.4808 122.122 30.4808C117.848 30.4808 114.463 28.8399 111.131 25.9559L107.453 30.3316C111.629 34.0609 116.653 35.9006 121.975 35.9006Z" fill="white"/>
<path d="M141.615 35.4033H147.731V20.7348H164.336V35.4033H170.453V0.596703H164.336V15.0663H147.731V0.596703H141.615V35.4033Z" fill="white"/>
<path d="M196.01 36C206.702 36 214.259 27.7957 214.259 18.0001V17.9007C214.259 8.10512 206.8 0.000167847 196.112 0.000167847C185.42 0.000167847 177.863 8.20455 177.863 18.0001V18.0995C177.863 27.8951 185.322 36 196.01 36ZM196.112 30.3316C189.2 30.3316 184.277 24.7625 184.277 18.0001V17.9007C184.277 11.1383 189.102 5.66862 196.01 5.66862C202.922 5.66862 207.844 11.2377 207.844 18.0001V18.0995C207.844 24.8619 203.024 30.3316 196.112 30.3316Z" fill="white"/>
<path d="M221.668 35.4033H227.687V10.5414L238.576 26.8508H238.775L249.761 10.442V35.4033H255.878V0.596703H249.366L238.775 17.0553L228.181 0.596703H221.668V35.4033Z" fill="white"/>
<path d="M316.493 35.4033H322.61V20.7348H339.215V35.4033H345.332V0.596703H339.215V15.0663H322.61V0.596703H316.493V35.4033Z" fill="white"/>
<path fill-rule="evenodd" clip-rule="evenodd" d="M369.347 7.65744L357.562 35.4033H351.298L366.615 0.348083H372.283L387.596 35.4033H381.133L369.347 7.65744Z" fill="white"/>
<path d="M435.981 0.596703H429.864V35.4033H435.981V0.596703Z" fill="white"/>
<path d="M18 0C22.9706 2.07953e-07 27.4702 2.0151 30.7275 5.27246L26.4854 9.51465C24.3138 7.34308 21.3137 6 18 6C11.3726 6 6 11.3726 6 18C6 24.6274 11.3726 30 18 30C21.3137 30 24.3138 28.6569 26.4854 26.4854L30.7275 30.7275C27.4702 33.9849 22.9706 36 18 36C8.05887 36 4.3454e-07 27.9411 0 18C-4.3454e-07 8.05887 8.05887 4.3454e-07 18 0ZM36 21H18V15H36V21Z" fill="white"/>
<path d="M461.734 0C466.704 2.07953e-07 471.204 2.0151 474.461 5.27246L470.219 9.51465C468.048 7.34308 465.048 6 461.734 6C455.106 6 449.734 11.3726 449.734 18C449.734 24.6274 455.106 30 461.734 30C465.048 30 468.048 28.6569 470.219 26.4854L474.461 30.7275C471.204 33.9849 466.704 36 461.734 36C451.793 36 443.734 27.9411 443.734 18C443.734 8.05887 451.793 4.3454e-07 461.734 0ZM479.734 21H461.734V15H479.734V21Z" fill="white"/>
<path d="M297.299 0C302.27 2.07953e-07 306.769 2.0151 310.027 5.27246L305.785 9.51465C303.613 7.34308 300.613 6 297.299 6C290.672 6 285.299 11.3726 285.299 18C285.299 24.6274 290.672 30 297.299 30C300.613 30 303.613 28.6569 305.785 26.4854L310.027 30.7275C306.769 33.9849 302.27 36 297.299 36C287.358 36 279.299 27.9411 279.299 18C279.299 8.05887 287.358 4.3454e-07 297.299 0Z" fill="white"/>
<path fill-rule="evenodd" clip-rule="evenodd" d="M399.679 6.16573V35.4033H393.562V0.596703H409.078C413.454 0.596703 416.883 1.88952 419.122 4.07736C420.961 5.96686 422.005 8.55254 422.005 11.5857V11.6851C422.005 17.4033 418.576 20.8342 413.751 22.2265L423.147 35.4033H415.888L403.516 17.8508H408.63C413.005 17.8508 415.79 15.5635 415.79 12.0331V11.9337C415.79 8.20445 413.103 6.16573 408.581 6.16573H399.679Z" fill="white"/>
</svg>
