<svg width="256" height="80" viewBox="0 0 256 80" fill="none" xmlns="http://www.w3.org/2000/svg">
<path d="M40.5259 35.4033H66.58V29.9337H46.6428V20.6354H64.0965V15.116H46.6428V6.06631H66.3311V0.596706H40.5259V35.4033Z" fill="white"/>
<path fill-rule="evenodd" clip-rule="evenodd" d="M79.9558 6.16573V35.4033H73.8389V0.596706H89.3552C93.7308 0.596706 97.1604 1.88952 99.3992 4.07736C101.238 5.96686 102.282 8.55254 102.282 11.5857V11.6851C102.282 17.4033 98.8527 20.8342 94.0285 22.2265L103.424 35.4033H96.1655L83.7928 17.8508H88.9067C93.2823 17.8508 96.0675 15.5635 96.0675 12.0331V11.9337C96.0675 8.20445 93.3803 6.16573 88.8579 6.16573H79.9558Z" fill="white"/>
<path d="M121.975 35.9006C129.283 35.9006 134.404 32.0222 134.404 25.5084V25.4089C134.404 19.6409 130.624 17.0056 123.268 15.2155C116.555 13.6244 114.961 12.431 114.961 9.74593V9.64651C114.961 7.35922 117.049 5.51942 120.629 5.51942C123.814 5.51942 126.946 6.76261 130.077 9.09962L133.36 4.4753C129.829 1.64105 125.8 0.0995903 120.731 0.0995903C113.819 0.0995903 108.848 4.22668 108.848 10.1935V10.2929C108.848 16.7073 113.024 18.8951 120.433 20.6851C126.897 22.1768 128.287 23.5195 128.287 26.0057V26.1051C128.287 28.6907 125.902 30.4808 122.122 30.4808C117.848 30.4808 114.463 28.8399 111.131 25.9559L107.453 30.3316C111.629 34.0609 116.653 35.9006 121.975 35.9006Z" fill="white"/>
<path d="M141.615 35.4033H147.731V20.7348H164.336V35.4033H170.453V0.596706H164.336V15.0663H147.731V0.596706H141.615V35.4033Z" fill="white"/>
<path d="M196.01 36C206.702 36 214.259 27.7957 214.259 18.0001V17.9007C214.259 8.10512 206.8 0.000167847 196.112 0.000167847C185.42 0.000167847 177.863 8.20455 177.863 18.0001V18.0995C177.863 27.8951 185.322 36 196.01 36ZM196.112 30.3316C189.2 30.3316 184.277 24.7625 184.277 18.0001V17.9007C184.277 11.1383 189.102 5.66862 196.01 5.66862C202.922 5.66862 207.844 11.2377 207.844 18.0001V18.0995C207.844 24.8619 203.024 30.3316 196.112 30.3316Z" fill="white"/>
<path d="M221.668 35.4033H227.687V10.5414L238.576 26.8508H238.775L249.761 10.442V35.4033H255.878V0.596706H249.366L238.775 17.0553L228.181 0.596706H221.668V35.4033Z" fill="white"/>
<path d="M18 0C22.9706 2.07953e-07 27.4702 2.0151 30.7275 5.27246L26.4854 9.51465C24.3138 7.34308 21.3137 6 18 6C11.3726 6 6 11.3726 6 18C6 24.6274 11.3726 30 18 30C21.3137 30 24.3138 28.6569 26.4854 26.4854L30.7275 30.7275C27.4702 33.9849 22.9706 36 18 36C8.05887 36 4.3454e-07 27.9411 0 18C-4.3454e-07 8.05887 8.05887 4.3454e-07 18 0ZM36 21H18V15H36V21Z" fill="white"/>
<path d="M37.1934 79.4033H43.3103V64.7348H59.9158V79.4033H66.0327V44.5967H59.9158V59.0663H43.3103V44.5967H37.1934V79.4033Z" fill="white"/>
<path fill-rule="evenodd" clip-rule="evenodd" d="M90.0479 51.6574L78.2626 79.4033H71.9988L87.3155 44.3481H92.9839L108.297 79.4033H101.833L90.0479 51.6574Z" fill="white"/>
<path d="M156.682 44.5967H150.565V79.4033H156.682V44.5967Z" fill="white"/>
<path d="M182.435 44C187.405 44 191.905 46.0151 195.162 49.2725L190.92 53.5146C188.748 51.3431 185.748 50 182.435 50C175.807 50 170.435 55.3726 170.435 62C170.435 68.6274 175.807 74 182.435 74C185.748 74 188.748 72.6569 190.92 70.4854L195.162 74.7275C191.905 77.9849 187.405 80 182.435 80C172.493 80 164.435 71.9411 164.435 62C164.435 52.0589 172.493 44 182.435 44ZM200.435 65H182.435V59H200.435V65Z" fill="white"/>
<path d="M18 44C22.9706 44 27.4702 46.0151 30.7275 49.2725L26.4854 53.5146C24.3138 51.3431 21.3137 50 18 50C11.3726 50 6 55.3726 6 62C6 68.6274 11.3726 74 18 74C21.3137 74 24.3138 72.6569 26.4854 70.4854L30.7275 74.7275C27.4702 77.9849 22.9706 80 18 80C8.05887 80 4.34541e-07 71.9411 0 62C-4.3454e-07 52.0589 8.05887 44 18 44Z" fill="white"/>
<path fill-rule="evenodd" clip-rule="evenodd" d="M120.379 50.1657V79.4033H114.262V44.5967H129.779C134.154 44.5967 137.584 45.8895 139.823 48.0774C141.662 49.9669 142.706 52.5525 142.706 55.5857V55.6851C142.706 61.4033 139.276 64.8342 134.452 66.2265L143.848 79.4033H136.589L124.216 61.8508H129.33C133.706 61.8508 136.491 59.5635 136.491 56.0332V55.9337C136.491 52.2045 133.804 50.1657 129.281 50.1657H120.379Z" fill="white"/>
</svg>
