<svg width="136" height="23" viewBox="0 0 136 23" fill="none" xmlns="http://www.w3.org/2000/svg">
<path d="M129.639 13.0797V7.15168H128.055V4.36768H129.639V1.36768H133.311V4.36768H135.951V7.15168H133.311V12.6237C133.311 13.8717 133.647 14.5677 135.231 14.5677H135.927V17.3277C135.519 17.5197 134.703 17.6637 133.719 17.6637C130.959 17.6637 129.639 16.0797 129.639 13.0797Z" fill="white"/>
<path d="M127.226 9.02396H123.554C123.314 7.51196 122.45 6.93596 121.394 6.93596C119.762 6.93596 118.922 8.30396 118.922 10.824C118.922 13.32 119.81 14.688 121.49 14.688C122.594 14.688 123.362 14.064 123.626 12.864H127.298C126.746 16.104 124.418 17.664 121.418 17.664C117.554 17.664 115.154 15.048 115.154 10.824C115.154 6.43196 117.602 3.95996 121.394 3.95996C124.394 3.95996 126.77 5.63996 127.226 9.02396Z" fill="white"/>
<path d="M113.788 13.032C113.116 16.008 110.716 17.664 107.548 17.664C103.54 17.664 101.068 15.072 101.068 10.824C101.068 6.43196 103.564 3.95996 107.404 3.95996C111.268 3.95996 113.692 6.52796 113.692 10.752V11.568H104.812C105.004 13.632 105.964 14.736 107.548 14.736C108.748 14.736 109.564 14.208 109.948 13.032H113.788ZM107.404 6.88796C106.036 6.88796 105.172 7.77596 104.884 9.45596H109.9C109.612 7.77596 108.748 6.88796 107.404 6.88796Z" fill="white"/>
<path d="M95.4794 3.072V0H99.1514V3.072H95.4794ZM99.1514 18.384C99.1514 21.408 97.7114 22.968 95.1914 22.968C94.3514 22.968 93.7754 22.776 93.4634 22.632V19.872H93.6554C95.1434 19.872 95.4794 19.176 95.4794 17.928V4.368H99.1514V18.384Z" fill="white"/>
<path d="M87.1773 17.664C83.2653 17.664 80.8413 15.072 80.8413 10.824C80.8413 6.43196 83.3373 3.95996 87.1773 3.95996C91.0893 3.95996 93.5373 6.59996 93.5373 10.824C93.5373 15.192 91.0173 17.664 87.1773 17.664ZM87.1773 14.688C88.8813 14.688 89.7693 13.344 89.7693 10.824C89.7693 8.32796 88.8573 6.93596 87.1773 6.93596C85.4973 6.93596 84.6093 8.30396 84.6093 10.824C84.6093 13.32 85.5213 14.688 87.1773 14.688Z" fill="white"/>
<path d="M71.8311 17.28V4.36796H75.5031V6.16796C76.3191 4.63196 77.5671 3.95996 78.8871 3.95996C79.4151 3.95996 79.8951 4.10396 80.1591 4.36796V7.46396C79.7271 7.36796 79.2711 7.31996 78.6951 7.31996C76.4871 7.31996 75.5031 8.56796 75.5031 10.608V17.28H71.8311Z" fill="white"/>
<path d="M56.9766 17.28V0.959961H63.3366C67.3686 0.959961 69.8646 2.99996 69.8646 6.43196C69.8646 9.93596 67.3446 11.952 63.3846 11.952H60.8166V17.28H56.9766ZM63.2646 4.00796H60.8166V8.90396H63.1686C65.0406 8.90396 65.9046 7.91996 65.9046 6.45596C65.9046 4.96796 64.9926 4.00796 63.2646 4.00796Z" fill="white"/>
<path d="M44.2798 13.0797V7.15168H42.6958V4.36768H44.2798V1.36768H47.9518V4.36768H50.5918V7.15168H47.9518V12.6237C47.9518 13.8717 48.2878 14.5677 49.8718 14.5677H50.5678V17.3277C50.1598 17.5197 49.3438 17.6637 48.3598 17.6637C45.5998 17.6637 44.2798 16.0797 44.2798 13.0797Z" fill="white"/>
<path d="M38.1953 17.2797L36.2273 14.0877L35.6273 12.8397L35.0033 14.0877L33.0593 17.2797H29.1953L33.6353 10.6077L29.4833 4.36768H33.7313L35.4113 7.10368L36.0353 8.37568L36.6353 7.10368L38.2913 4.36768H42.1313L38.0033 10.6077L42.4433 17.2797H38.1953Z" fill="white"/>
<path d="M28.991 13.032C28.319 16.008 25.919 17.664 22.751 17.664C18.743 17.664 16.271 15.072 16.271 10.824C16.271 6.43196 18.767 3.95996 22.607 3.95996C26.471 3.95996 28.895 6.52796 28.895 10.752V11.568H20.015C20.207 13.632 21.167 14.736 22.751 14.736C23.951 14.736 24.767 14.208 25.151 13.032H28.991ZM22.607 6.88796C21.239 6.88796 20.375 7.77596 20.087 9.45596H25.103C24.815 7.77596 23.951 6.88796 22.607 6.88796Z" fill="white"/>
<path d="M0 17.28V0.959961H4.056L9.216 9.52796L10.464 12.12L10.272 0.959961H14.112V17.28H10.056L4.896 8.71196L3.648 6.09596L3.84 17.28H0Z" fill="white"/>
</svg>
